<?xml version="1.0" encoding="UTF-8"?> <svg xmlns="http://www.w3.org/2000/svg" height="512" viewBox="0 0 256 256" width="512"> <path d="m61.944 150.186-23.871-23.871a3.966 3.966 0 0 0 -5.609 0l-8.158 8.158 29.48 29.48 8.158-8.158a3.966 3.966 0 0 0 0-5.609z" fill="#afafaf"></path> <path d="m129.685 217.927-23.871-23.871a3.966 3.966 0 0 0 -5.609 0l-8.158 8.158 29.48 29.479 8.158-8.157a3.966 3.966 0 0 0 0-5.609z" fill="#afafaf"></path> <path d="m47.647 175.706 32.653 32.649a3.966 3.966 0 0 0 5.609 0l6.143-6.143 29.48 29.481-12.559 12.559a14.089 14.089 0 0 1 -18.313 1.419 378.472 378.472 0 0 1 -80.314-80.3 14.114 14.114 0 0 1 1.413-18.341l12.554-12.553 29.48 29.48-6.146 6.143a3.966 3.966 0 0 0 0 5.606z" fill="#72c1e8"></path> <path d="m248.393 89.935a82.356 82.356 0 1 0 -155.618 37.656 13.2 13.2 0 0 1 .824 10.2l-12.179 36.8 36.8-12.179a13.2 13.2 0 0 1 10.2.824 82.367 82.367 0 0 0 119.973-73.301z" fill="#fc5d3d"></path> <circle cx="166.072" cy="89.933" fill="#f0c020" r="60.428"></circle> <path d="m95.11 239.637q-.811-.6-1.619-1.2a2.5 2.5 0 0 1 2.987-4.01q.8.594 1.6 1.183a2.5 2.5 0 1 1 -2.964 4.025zm-9.612-7.32a370.875 370.875 0 0 1 -69.118-71.4 2.5 2.5 0 0 1 4.027-2.964 365.831 365.831 0 0 0 68.185 70.433 2.5 2.5 0 1 1 -3.094 3.928z" fill="#c5e5ff"></path> <path d="m166.044 142.836h-.006a52.928 52.928 0 0 1 -37.393-90.329 2.5 2.5 0 0 1 3.536 3.535 47.928 47.928 0 0 0 33.857 81.794h.006a48.146 48.146 0 0 0 23.334-6.019 2.5 2.5 0 1 1 2.428 4.371 53.149 53.149 0 0 1 -25.762 6.648zm30.846-12.906a2.5 2.5 0 0 1 .277-3.524c.96-.821 1.9-1.69 2.795-2.584a2.5 2.5 0 0 1 3.534 3.537c-.986.985-2.023 1.944-3.081 2.848a2.5 2.5 0 0 1 -3.525-.277z" fill="#f9e5af"></path> <path d="m166.931 166.255a74.847 74.847 0 0 1 -34.588-8.369 21.236 21.236 0 0 0 -16.235-1.3l-2.263.749a2.5 2.5 0 1 1 -1.571-4.746l2.263-.749a26.269 26.269 0 0 1 20.094 1.6 69.911 69.911 0 0 0 32.3 7.814 70.858 70.858 0 0 0 70.918-71.32 69.968 69.968 0 0 0 -6.93-30.209 2.5 2.5 0 0 1 4.5-2.17 74.927 74.927 0 0 1 7.425 32.379 75.867 75.867 0 0 1 -75.913 76.321zm-72.14-5.242a2.5 2.5 0 0 1 1.588-3.159l6.4-2.119a2.5 2.5 0 1 1 1.571 4.746l-6.4 2.119a2.5 2.5 0 0 1 -3.159-1.587z" fill="#ffcbc2"></path> <path d="m23.93 182.746a2.5 2.5 0 1 0 3.52.3 2.576 2.576 0 0 0 -3.52-.3z"></path> <path d="m8.33 166.845c2.9 3.95 5.91 7.861 8.92 11.64a2.554 2.554 0 0 0 3.51.4 2.509 2.509 0 0 0 .4-3.52c-2.98-3.73-5.94-7.59-8.81-11.48a11.626 11.626 0 0 1 1.17-15.09l10.79-10.79 25.94 25.951-4.37 4.379a6.441 6.441 0 0 0 0 9.13l32.65 32.66a6.47 6.47 0 0 0 9.14 0l4.38-4.379 25.94 25.954-10.79 10.79a11.585 11.585 0 0 1 -15.06 1.17 376.58 376.58 0 0 1 -58.19-53.09 2.557 2.557 0 0 0 -3.53-.21 2.491 2.491 0 0 0 -.21 3.53 382.267 382.267 0 0 0 58.96 53.8 16.6 16.6 0 0 0 21.57-1.67c7.447-7.453 17.183-17.183 20.71-20.71a.01.01 0 0 0 .01-.01 6.467 6.467 0 0 0 -.01-9.14l-23.87-23.87a6.47 6.47 0 0 0 -9.14 0c-8.716 8.716-6.64 6.639-14.3 14.3a1.47 1.47 0 0 1 -2.08 0l-32.64-32.65a1.469 1.469 0 0 1 -.01-2.07c4.016-4.01 7.749-7.757 14.3-14.3l.01-.01a6.464 6.464 0 0 0 -.01-9.139l-23.87-23.876a6.482 6.482 0 0 0 -9.15 0c-10.168 10.181-5.485 5.5-20.7 20.71a16.586 16.586 0 0 0 -1.66 21.59zm93.64 28.98a1.468 1.468 0 0 1 2.08 0l23.87 23.87a1.465 1.465 0 0 1 -.01 2.08l-6.38 6.38c-15.808-15.8-9.873-9.867-25.945-25.945zm-67.74-67.74a1.455 1.455 0 0 1 2.07 0l23.88 23.871a1.469 1.469 0 0 1 -.01 2.069c0 .01 0 .01-.01.01l-6.369 6.381-25.951-25.951z"></path> <path d="m166.07 27.005a62.93 62.93 0 1 0 15.5 123.93 2.5 2.5 0 0 0 1.81-3.04 2.532 2.532 0 0 0 -3.04-1.81 57.955 57.955 0 1 1 17.47-7.69 2.511 2.511 0 0 0 -.72 3.47 2.554 2.554 0 0 0 3.46.71 62.928 62.928 0 0 0 -34.48-115.57z"></path> <path d="m191.41 147.545a2.5 2.5 0 0 0 1.28-3.3 2.538 2.538 0 0 0 -3.29-1.271 2.5 2.5 0 1 0 2.01 4.57z"></path> <path d="m222.13 150.2a2.567 2.567 0 0 0 -3.53-.23 79.675 79.675 0 0 1 -89.04 11.04 15.912 15.912 0 0 0 -12.13-.98l-32.07 10.62 10.61-32.07a15.7 15.7 0 0 0 -.97-12.13 78.906 78.906 0 0 1 -8.81-36.48c0-1.29.03-2.62.09-3.95a2.5 2.5 0 1 0 -4.99-.24c-.07 1.38-.1 2.79-.1 4.19a84.465 84.465 0 0 0 9.36 38.77 10.66 10.66 0 0 1 .67 8.27l-12.17 36.79a2.5 2.5 0 0 0 3.15 3.161l36.8-12.186a10.777 10.777 0 0 1 8.27.681 84.676 84.676 0 0 0 94.63-11.741 2.5 2.5 0 0 0 .23-3.515z"></path> <path d="m231.51 135.555a2.5 2.5 0 0 0 4.1 2.861 84.763 84.763 0 0 0 -69.57-133.311 85.2 85.2 0 0 0 -81.26 60.41 2.5 2.5 0 0 0 1.66 3.12 2.555 2.555 0 0 0 3.12-1.67 79.856 79.856 0 0 1 156.33 23 79.088 79.088 0 0 1 -14.38 45.59z"></path> <path d="m229.21 146.475a2.5 2.5 0 0 0 -.19-3.519 2.564 2.564 0 0 0 -3.53.189 2.5 2.5 0 1 0 3.72 3.33z"></path> <path d="m84.45 78.425a2.482 2.482 0 0 0 2.88-2.03v-.01a2.5 2.5 0 1 0 -2.88 2.04z"></path> <path d="m155.57 64.025h-4.08a8.634 8.634 0 0 0 -8.62 8.62v6.12a2.492 2.492 0 0 0 2.5 2.5h16.33a2.5 2.5 0 1 0 0-4.99h-13.83v-3.63a3.632 3.632 0 0 1 3.62-3.62h4.08a8.625 8.625 0 1 0 0-17.25h-10.2a2.5 2.5 0 0 0 0 5h10.2a3.625 3.625 0 1 1 0 7.25z"></path> <path d="m165.28 127.965a2.493 2.493 0 0 0 3.16-1.58c0-.01 0-.01.01-.01l8.16-24.49a2.51 2.51 0 0 0 -2.37-3.29h-16.33a2.5 2.5 0 0 0 0 5h12.86l-7.07 21.2a2.506 2.506 0 0 0 1.58 3.17z"></path> <path d="m172.28 51.775a2.5 2.5 0 0 0 -2.5 2.5v14.16a2.491 2.491 0 0 0 2.5 2.5h13.83v7.83a2.5 2.5 0 0 0 5 0v-24.49a2.5 2.5 0 0 0 -5 0v11.66h-11.33v-11.66a2.5 2.5 0 0 0 -2.5-2.5z"></path> <path d="m202.83 89.505a2.5 2.5 0 0 0 -2.5-2.5h-68.51a2.5 2.5 0 0 0 0 5h68.51a2.5 2.5 0 0 0 2.5-2.5z"></path> </svg> 