<?xml version="1.0" encoding="UTF-8"?> <svg xmlns="http://www.w3.org/2000/svg" xmlns:xlink="http://www.w3.org/1999/xlink" xmlns:svgjs="http://svgjs.com/svgjs" width="512" height="512" x="0" y="0" viewBox="0 0 496 496" style="enable-background:new 0 0 512 512" xml:space="preserve" class=""> <g> <path xmlns="http://www.w3.org/2000/svg" d="m232 168v-160h192v64h64v240h-64v-48c19.441406-14.558594 32-37.839844 32-64 0-44.160156-35.839844-80-80-80s-80 35.839844-80 80c0 5.441406.558594 10.800781 1.601562 16h-1.601562c-3.601562 0-7.121094 1.199219-10 3.519531l-35.601562 28.480469h-18.398438zm0 0" fill="#c0cfe3" data-original="#e6e9ed" style="" class=""></path> <path xmlns="http://www.w3.org/2000/svg" d="m488 72h-64v-64zm0 0" fill="#ccd1d9" data-original="#ccd1d9" style="" class=""></path> <path xmlns="http://www.w3.org/2000/svg" d="m456 200c0 26.160156-12.558594 49.441406-32 64v-32c0-8.800781-7.199219-16-16-16h-110.398438c-1.042968-5.199219-1.601562-10.558594-1.601562-16 0-44.160156 35.839844-80 80-80s80 35.839844 80 80zm0 0" fill="#fcd770" data-original="#fcd770" style="" class=""></path> <path xmlns="http://www.w3.org/2000/svg" d="m232 168v32h-192v224h32c0 8.800781-3.601562 16.800781-9.359375 22.640625-5.839844 5.757813-13.839844 9.359375-22.640625 9.359375-17.679688 0-32-14.320312-32-32v-240c0-8.800781 7.199219-16 16-16zm0 0" fill="#d1270c" data-original="#ff826e" style="" class=""></path> <path xmlns="http://www.w3.org/2000/svg" d="m232 200v48h-160v176h-32v-224zm0 0" fill="#c0cfe3" data-original="#e6e9ed" style="" class=""></path> <path xmlns="http://www.w3.org/2000/svg" d="m408 216h-112c-3.601562 0-7.121094 1.199219-10 3.519531l-35.601562 28.480469h-178.398438v176c0 8.800781-3.601562 16.800781-9.359375 22.640625-5.839844 5.757813-13.839844 9.359375-22.640625 9.359375h352c17.679688 0 32-14.320312 32-32v-192c0-8.800781-7.199219-16-16-16zm0 0" fill="#6ab30c" data-original="#b4dd7f" style="" class=""></path> <path xmlns="http://www.w3.org/2000/svg" d="m312 376v48c0 11.679688-3.121094 22.640625-8.558594 32-11.042968 19.121094-31.761718 32-55.441406 32-23.761719 0-44.558594-12.960938-55.519531-32.238281-5.359375-9.363281-8.480469-20.160157-8.480469-31.761719v-48c0-8.800781 7.199219-16 16-16h96c8.800781 0 16 7.199219 16 16zm0 0" fill="#fcd770" data-original="#fcd770" style="" class=""></path> <path xmlns="http://www.w3.org/2000/svg" d="m264 408c0 8.835938-7.164062 16-16 16s-16-7.164062-16-16 7.164062-16 16-16 16 7.164062 16 16zm0 0" fill="#ffc729" data-original="#ffc729" style=""></path> <path xmlns="http://www.w3.org/2000/svg" d="m496 68.6875-68.6875-68.6875h-203.3125v160h-200c-13.230469 0-24 10.769531-24 24v240c0 22.054688 17.945312 40 40 40h148.175781c12.9375 19.28125 34.921875 32 59.824219 32s46.894531-12.71875 59.824219-32h84.175781c22.054688 0 40-17.945312 40-40v-104h64zm-64-41.375 36.6875 36.6875h-36.6875zm-368 212.6875v176h-16v-208h176v32zm-48 184v-240c0-4.40625 3.59375-8 8-8h200v16h-192v240h30.527344c-3.3125 9.289062-12.113282 16-22.527344 16-13.230469 0-24-10.769531-24-24zm232 56c-30.878906 0-56-25.128906-56-56v-48c0-4.414062 3.59375-8 8-8h96c4.40625 0 8 3.585938 8 8v48c0 30.871094-25.121094 56-56 56zm40-128h-80v-24c0-22.054688 17.945312-40 40-40s40 17.945312 40 40zm128 72c0 13.230469-10.769531 24-24 24h-76.199219c2.671875-7.519531 4.199219-15.574219 4.199219-24v-48c0-10.414062-6.710938-19.214844-16-22.527344v-25.472656c0-30.871094-25.121094-56-56-56s-56 25.128906-56 56v25.472656c-9.289062 3.3125-16 12.113282-16 22.527344v48c0 8.425781 1.527344 16.480469 4.199219 24h-108.40625c5.078125-6.703125 8.207031-14.960938 8.207031-24v-168h173.191406l37.816406-30.246094c1.40625-1.128906 3.183594-1.753906 4.992188-1.753906h112c4.40625 0 8 3.59375 8 8zm-112-224c0-39.695312 32.304688-72 72-72s72 32.304688 72 72c0 16.808594-5.71875 32.585938-16 45.238281v-13.238281c0-13.230469-10.769531-24-24-24h-103.527344c-.296875-2.648438-.472656-5.320312-.472656-8zm128 104v-36.296875c20.320312-16.792969 32-41.175781 32-67.703125 0-48.519531-39.480469-88-88-88s-88 39.480469-88 88c0 3.089844.175781 6.175781.496094 9.238281-2.695313.890625-5.25 2.226563-7.488282 4.019531l-33.421874 26.742188h-7.585938v-224h176v64h64v224zm0 0" fill="#000000" data-original="#000000" style="" class=""></path> <path xmlns="http://www.w3.org/2000/svg" d="m248 384c-13.230469 0-24 10.769531-24 24 0 10.414062 6.710938 19.214844 16 22.527344v33.472656h16v-33.472656c9.289062-3.3125 16-12.113282 16-22.527344 0-13.230469-10.769531-24-24-24zm0 32c-4.40625 0-8-3.585938-8-8s3.59375-8 8-8 8 3.585938 8 8-3.59375 8-8 8zm0 0" fill="#000000" data-original="#000000" style="" class=""></path> <path xmlns="http://www.w3.org/2000/svg" d="m304 240h96v16h-96zm0 0" fill="#000000" data-original="#000000" style="" class=""></path> <path xmlns="http://www.w3.org/2000/svg" d="m256 32h16v16h-16zm0 0" fill="#000000" data-original="#000000" style="" class=""></path> <path xmlns="http://www.w3.org/2000/svg" d="m288 32h112v16h-112zm0 0" fill="#000000" data-original="#000000" style="" class=""></path> <path xmlns="http://www.w3.org/2000/svg" d="m256 64h144v16h-144zm0 0" fill="#000000" data-original="#000000" style="" class=""></path> <path xmlns="http://www.w3.org/2000/svg" d="m256 96h48v16h-48zm0 0" fill="#000000" data-original="#000000" style="" class=""></path> </g> </svg> 