<?xml version="1.0" encoding="UTF-8"?> <svg xmlns="http://www.w3.org/2000/svg" xmlns:xlink="http://www.w3.org/1999/xlink" xmlns:svgjs="http://svgjs.com/svgjs" width="512" height="512" x="0" y="0" viewBox="0 0 512 512" style="enable-background:new 0 0 512 512" xml:space="preserve" class=""> <g> <g xmlns="http://www.w3.org/2000/svg"> <g> <path d="m447.147 347.522v-171.327c0-11.451-9.499-20.734-21.218-20.734-11.718 0-21.218 9.283-21.218 20.734v171.327z" fill="#9dffcd" data-original="#aee69c" style="" class=""></path> <path d="m362.277 334.788v-158.593c0-11.451-9.499-20.734-21.218-20.734-11.718 0-21.218 9.283-21.218 20.734v131.993c0 3.648-4.391 5.497-7.001 2.947l-45.348-44.315c-8.063-7.879-21.256-7.879-29.319 0-7.503 7.332-8.13 19.016-1.453 27.074l83.483 100.759c5.802 7.003 8.968 15.74 8.968 24.751v47.259h160.411v-115.063-124.969c0-11.451-9.499-20.734-21.218-20.734-11.718 0-21.218 9.283-21.218 20.734v108.157z" fill="#9dffcd" data-original="#aee69c" style="" class=""></path> <path d="m425.93 155.461c3.869 0 7.485 1.028 10.609 2.797-6.336 3.587-10.609 10.268-10.609 17.938v155.742c0 5.859-4.75 10.609-10.609 10.609-5.859 0-10.609-4.75-10.609-10.609v-155.743c0-11.451 9.5-20.734 21.218-20.734z" fill="#3eb7bd" data-original="#89daa4" style="" class=""></path> <g fill="#89daa4"> <path d="m469.8 226.631v104.589c0 6.255-5.071 11.326-11.326 11.326-6.255 0-11.326-5.071-11.326-11.326v-104.589c0-11.451 9.499-20.734 21.217-20.734 4.17 0 8.046 1.192 11.326 3.223-5.937 3.674-9.891 10.134-9.891 17.511z" fill="#3eb7bd" data-original="#89daa4" style="" class=""></path> <path d="m342.495 176.195v117.104c0 11.665-11.945 19.516-22.653 14.889v-131.993c0-11.451 9.499-20.734 21.218-20.734 4.17 0 8.046 1.192 11.326 3.223-5.938 3.675-9.891 10.134-9.891 17.511z" fill="#3eb7bd" data-original="#89daa4" style="" class=""></path> </g> <g> <path d="m238.174 266.819c8.063-7.879 21.256-7.879 29.319 0l.831.812c-6.762 7.36-7.136 18.491-.697 26.262l83.483 100.759c5.802 7.003 8.968 15.74 8.968 24.751v47.259h-30.905v-47.259c0-9.011-3.166-17.748-8.968-24.751l-83.483-100.759c-6.678-8.058-6.051-19.742 1.452-27.074z" fill="#3eb7bd" data-original="#89daa4" style="" class=""></path> </g> <path d="m404.712 334.788v-192.217c0-11.451-9.499-20.734-21.218-20.734-11.718 0-21.218 9.283-21.218 20.734v192.217z" fill="#9dffcd" data-original="#aee69c" style="" class=""></path> <path d="m383.495 121.837c3.869 0 7.485 1.028 10.609 2.797-6.336 3.587-10.609 10.268-10.609 17.938v189.366c0 5.859-4.75 10.609-10.609 10.609-5.859 0-10.609-4.75-10.609-10.609v-189.367c0-11.451 9.499-20.734 21.218-20.734z" fill="#3eb7bd" data-original="#89daa4" style="" class=""></path> <path d="m318.092 512h182.571c6.262 0 11.338-5.076 11.338-11.338v-22.663c0-6.262-5.076-11.338-11.338-11.338h-182.571c-6.262 0-11.338 5.076-11.338 11.338v22.663c0 6.262 5.076 11.338 11.338 11.338z" fill="#e15555" data-original="#dbf1d0" style="" class=""></path> <path d="m500.662 466.662h-30.905c6.262 0 11.338 5.076 11.338 11.338v22.663c0 6.262-5.076 11.338-11.338 11.338h30.905c6.262 0 11.338-5.076 11.338-11.338v-22.663c0-6.262-5.076-11.338-11.338-11.338z" fill="#951d17" data-original="#c1e9af" style="" class=""></path> </g> <g> <path d="m64.853 225.685v-171.327c0-11.451 9.499-20.734 21.218-20.734 11.718 0 21.218 9.283 21.218 20.734v171.327z" fill="#9dffcd" data-original="#aee69c" style="" class=""></path> <path d="m149.723 212.951v-158.593c0-11.451 9.499-20.734 21.218-20.734 11.718 0 21.218 9.283 21.218 20.734v131.993c0 3.648 4.391 5.497 7.001 2.947l45.348-44.315c8.063-7.879 21.256-7.879 29.319 0 7.503 7.332 8.13 19.016 1.453 27.074l-83.483 100.759c-5.802 7.003-8.968 15.74-8.968 24.751v47.259h-160.411v-115.063-124.969c0-11.451 9.499-20.734 21.218-20.734 11.718 0 21.218 9.283 21.218 20.734v108.157z" fill="#9dffcd" data-original="#aee69c" style="" class=""></path> <path d="m86.07 33.624c-3.869 0-7.485 1.028-10.609 2.797 6.336 3.587 10.609 10.268 10.609 17.938v155.741c0 5.859 4.75 10.609 10.609 10.609 5.859 0 10.609-4.75 10.609-10.609v-155.742c0-11.451-9.5-20.734-21.218-20.734z" fill="#3eb7bd" data-original="#89daa4" style="" class=""></path> <g fill="#89daa4"> <path d="m42.2 104.794v104.589c0 6.255 5.071 11.326 11.326 11.326 6.255 0 11.326-5.071 11.326-11.326v-104.589c0-11.451-9.499-20.734-21.217-20.734-4.17 0-8.046 1.192-11.326 3.223 5.937 3.674 9.891 10.134 9.891 17.511z" fill="#3eb7bd" data-original="#89daa4" style="" class=""></path> <path d="m169.505 54.358v117.104c0 11.665 11.945 19.516 22.653 14.889v-131.993c0-11.451-9.499-20.734-21.218-20.734-4.17 0-8.046 1.192-11.326 3.223 5.938 3.675 9.891 10.135 9.891 17.511z" fill="#3eb7bd" data-original="#89daa4" style="" class=""></path> </g> <g> <path d="m273.826 144.982c-8.063-7.879-21.256-7.879-29.319 0l-.831.812c6.762 7.36 7.136 18.491.697 26.262l-83.483 100.759c-5.802 7.003-8.968 15.74-8.968 24.751v47.259h30.905v-47.259c0-9.011 3.166-17.748 8.968-24.751l83.483-100.759c6.678-8.058 6.051-19.742-1.452-27.074z" fill="#3eb7bd" data-original="#89daa4" style="" class=""></path> </g> <path d="m107.288 212.951v-192.217c0-11.451 9.499-20.734 21.217-20.734 11.718 0 21.218 9.283 21.218 20.734v192.217z" fill="#9dffcd" data-original="#aee69c" style="" class=""></path> <path d="m128.505 0c-3.869 0-7.485 1.028-10.609 2.797 6.336 3.587 10.609 10.268 10.609 17.938v189.365c0 5.859 4.75 10.609 10.609 10.609 5.859 0 10.609-4.75 10.609-10.609v-189.366c0-11.451-9.499-20.734-21.218-20.734z" fill="#3eb7bd" data-original="#89daa4" style="" class=""></path> <path d="m193.908 390.163h-182.57c-6.262 0-11.338-5.076-11.338-11.338v-22.663c0-6.262 5.076-11.338 11.338-11.338h182.571c6.262 0 11.338 5.076 11.338 11.338v22.663c-.001 6.262-5.077 11.338-11.339 11.338z" fill="#e15555" data-original="#dbf1d0" style="" class=""></path> <path d="m193.908 344.825h-30.905c6.262 0 11.338 5.076 11.338 11.338v22.663c0 6.262-5.076 11.338-11.338 11.338h30.905c6.262 0 11.338-5.076 11.338-11.338v-22.663c0-6.262-5.076-11.338-11.338-11.338z" fill="#951d17" data-original="#c1e9af" style="" class=""></path> </g> </g> </g> </svg> 